<mxfile host="app.diagrams.net" modified="2024-05-01T02:03:55.318Z" agent="Mozilla/5.0 (Windows NT 10.0; Win64; x64) AppleWebKit/537.36 (KHTML, like Gecko) Chrome/124.0.0.0 Safari/537.36" etag="JvVzH38ifb2OkexUjjC6" version="24.3.1" type="github">
  <diagram name="Page-1" id="EGDw-3VH0Bc5u0TvIolR">
    <mxGraphModel dx="1434" dy="738" grid="1" gridSize="10" guides="1" tooltips="1" connect="1" arrows="1" fold="1" page="1" pageScale="1" pageWidth="850" pageHeight="1100" math="0" shadow="0">
      <root>
        <mxCell id="0" />
        <mxCell id="1" parent="0" />
        <mxCell id="bSI7Ztx-QwMp5hmerMQc-1" value="" style="rounded=0;whiteSpace=wrap;html=1;" vertex="1" parent="1">
          <mxGeometry x="90" y="20" width="570" height="580" as="geometry" />
        </mxCell>
        <mxCell id="bSI7Ztx-QwMp5hmerMQc-2" value="TOP" style="text;html=1;align=center;verticalAlign=middle;resizable=0;points=[];autosize=1;strokeColor=none;fillColor=none;" vertex="1" parent="1">
          <mxGeometry x="350" y="20" width="50" height="30" as="geometry" />
        </mxCell>
        <mxCell id="bSI7Ztx-QwMp5hmerMQc-3" value="" style="rounded=0;whiteSpace=wrap;html=1;" vertex="1" parent="1">
          <mxGeometry x="120" y="420" width="150" height="150" as="geometry" />
        </mxCell>
        <mxCell id="bSI7Ztx-QwMp5hmerMQc-4" value="DUT" style="text;html=1;align=center;verticalAlign=middle;resizable=0;points=[];autosize=1;strokeColor=none;fillColor=none;" vertex="1" parent="1">
          <mxGeometry x="170" y="420" width="50" height="30" as="geometry" />
        </mxCell>
        <mxCell id="bSI7Ztx-QwMp5hmerMQc-5" value="I2C HOST" style="rounded=0;whiteSpace=wrap;html=1;" vertex="1" parent="1">
          <mxGeometry x="135" y="465" width="120" height="60" as="geometry" />
        </mxCell>
        <mxCell id="bSI7Ztx-QwMp5hmerMQc-7" value="" style="rounded=0;whiteSpace=wrap;html=1;" vertex="1" parent="1">
          <mxGeometry x="305" y="70" width="335" height="510" as="geometry" />
        </mxCell>
        <mxCell id="bSI7Ztx-QwMp5hmerMQc-6" value="i2c_if" style="shape=doubleArrow;whiteSpace=wrap;html=1;" vertex="1" parent="1">
          <mxGeometry x="270" y="465" width="160" height="60" as="geometry" />
        </mxCell>
      </root>
    </mxGraphModel>
  </diagram>
</mxfile>
